<?xml version="1.0" encoding="UTF-8"?>
<svg width="800" height="800" version="1.1" viewBox="0 0 800 800" xmlns="http://www.w3.org/2000/svg">
 <defs>
  <linearGradient id="grad" x1="0%" y1="0%" x2="100%" y2="100%">
   <stop offset="0%" style="stop-color:#4A90E2;stop-opacity:1" />
   <stop offset="100%" style="stop-color:#50E3C2;stop-opacity:1" />
  </linearGradient>
 </defs>
 <g>
  <circle cx="400" cy="400" r="380" fill="url(#grad)" stroke="#000" stroke-width="2"/>
  <g transform="translate(400,400) scale(0.6)">
   <!-- Phone handset -->
   <path d="M-200,-200 C-180,-220 -160,-220 -140,-200 L-80,-140 C-60,-120 -60,-100 -80,-80 L-120,-40 C-100,-20 0,80 120,200 C240,320 340,420 360,440 L400,400 C420,380 440,380 460,400 L520,460 C540,480 540,500 520,520 L440,600 C420,620 400,620 380,600 C260,480 40,260 -80,140 C-200,20 -220,0 -240,-20 L-280,-60 C-300,-80 -300,-100 -280,-120 L-200,-200 Z" 
         fill="#fff" stroke="#000" stroke-width="10"/>
   <!-- AI Brain circuits -->
   <g transform="translate(-50,0) scale(0.4)">
    <path d="M0,0 L50,50 L100,0 L150,50 L200,0" fill="none" stroke="#000" stroke-width="15"/>
    <path d="M0,50 L50,0 L100,50 L150,0 L200,50" fill="none" stroke="#000" stroke-width="15"/>
    <circle cx="0" cy="0" r="10" fill="#000"/>
    <circle cx="100" cy="0" r="10" fill="#000"/>
    <circle cx="200" cy="0" r="10" fill="#000"/>
    <circle cx="50" cy="50" r="10" fill="#000"/>
    <circle cx="150" cy="50" r="10" fill="#000"/>
   </g>
  </g>
 </g>
</svg>
